<svg width="147" height="186" viewBox="0 0 147 186" fill="none" xmlns="http://www.w3.org/2000/svg">
<path d="M73.3375 93.121C73.8035 93.121 74.1813 92.7421 74.1813 92.2747C74.1813 91.8073 73.8035 91.4284 73.3375 91.4284C72.8715 91.4284 72.4938 91.8073 72.4938 92.2747C72.4938 92.7421 72.8715 93.121 73.3375 93.121Z" fill="#111111"/>
<path d="M48.8257 29.4051V33.1185" stroke="white" stroke-width="0.86359" stroke-linecap="round" stroke-linejoin="round"/>
<path d="M46.9661 31.2621H50.6769" stroke="white" stroke-width="0.86359" stroke-linecap="round" stroke-linejoin="round"/>
<path d="M90.9702 52.8256C83.7639 52.8256 76.4284 52.532 69.5665 50.6149C62.8337 48.7409 56.6519 45.1052 51.1417 40.8995C47.5342 38.1619 44.2539 35.977 39.5702 36.3052C34.9881 36.5539 30.6064 38.2701 27.0689 41.2017C21.1109 46.4351 22.0063 56.1332 24.3912 62.921C27.9729 73.1718 38.8728 80.3137 48.1369 84.9339C58.8388 90.2968 70.5996 93.4144 82.3863 95.202C92.718 96.7824 105.994 97.9223 114.948 91.1604C123.171 84.9339 125.426 70.7365 123.412 61.1507C122.923 58.3188 121.42 55.7636 119.184 53.9656C113.407 49.7254 104.789 52.5579 98.2971 52.6961C95.8864 52.7479 93.4326 52.8084 90.9702 52.8256Z" fill="#F2F2F2"/>
<path d="M79.7246 23.4987C79.7246 23.7289 79.5389 23.9132 79.3126 23.9132C79.0863 23.9132 78.9007 23.7289 78.9007 23.4987C78.9007 23.2685 79.0863 23.0842 79.3126 23.0842C79.5389 23.0842 79.7246 23.2685 79.7246 23.4987Z" fill="#111111" stroke="white" stroke-width="0.86359"/>
<path d="M35.4719 90.2451V93.9586" stroke="white" stroke-width="0.86359" stroke-linecap="round" stroke-linejoin="round"/>
<path d="M33.621 92.1022H37.3232" stroke="white" stroke-width="0.86359" stroke-linecap="round" stroke-linejoin="round"/>
<path d="M73.6821 112.008C91.1378 112.008 105.288 111.122 105.288 110.03C105.288 108.938 91.1378 108.052 73.6821 108.052C56.2264 108.052 42.0758 108.938 42.0758 110.03C42.0758 111.122 56.2264 112.008 73.6821 112.008Z" fill="#F2F2F2"/>
<path d="M99.0893 88.8458H44.495C44.1296 88.8455 43.7687 88.7657 43.4371 88.6117C43.1056 88.4578 42.8113 88.2335 42.5747 87.9542C42.338 87.675 42.1647 87.3476 42.0667 86.9945C41.9686 86.6415 41.9482 86.2713 42.0068 85.9096L48.9893 43.4382C49.0836 42.8471 49.3852 42.3092 49.8398 41.9214C50.2944 41.5335 50.8721 41.3211 51.4689 41.3224H106.063C106.428 41.3225 106.789 41.4023 107.12 41.5563C107.451 41.7103 107.745 41.9348 107.981 42.2143C108.217 42.4937 108.39 42.8213 108.487 43.1744C108.584 43.5274 108.603 43.8974 108.543 44.2587L101.595 86.73C101.498 87.3248 101.192 87.8652 100.733 88.2533C100.273 88.6414 99.69 88.8516 99.0893 88.8458Z" fill="#D2D2D2"/>
<path d="M99.762 40.2125L67.356 25.6998C66.4008 25.272 65.2807 25.7019 64.8542 26.66L54.5836 49.7333C54.1571 50.6914 54.5857 51.8149 55.541 52.2427L87.9469 66.7554C88.9021 67.1832 90.0222 66.7533 90.4487 65.7952L100.719 42.7219C101.146 41.7638 100.717 40.6403 99.762 40.2125Z" fill="white" stroke="#111111" stroke-width="0.86359" stroke-linecap="round" stroke-linejoin="round"/>
<path d="M72.1064 44.6822C72.9594 43.4816 74.2 42.6139 75.6179 42.2258C77.0358 41.8378 78.5439 41.9534 79.8865 42.5531C81.2292 43.1528 82.3238 44.1996 82.985 45.5162C83.6461 46.8328 83.8332 48.3382 83.5143 49.7773" stroke="#111111" stroke-width="0.587241" stroke-linecap="round" stroke-linejoin="round"/>
<path d="M87.6038 43.3781C88.0936 43.3781 88.4906 42.9798 88.4906 42.4886C88.4906 41.9973 88.0936 41.5991 87.6038 41.5991C87.1141 41.5991 86.717 41.9973 86.717 42.4886C86.717 42.9798 87.1141 43.3781 87.6038 43.3781Z" fill="#111111"/>
<path d="M74.7583 37.6264C75.248 37.6264 75.6451 37.2282 75.6451 36.7369C75.6451 36.2457 75.248 35.8474 74.7583 35.8474C74.2685 35.8474 73.8715 36.2457 73.8715 36.7369C73.8715 37.2282 74.2685 37.6264 74.7583 37.6264Z" fill="#111111"/>
<path d="M98.8482 88.8289H43.9871C43.3195 88.8266 42.6801 88.559 42.2088 88.0847C41.7376 87.6104 41.473 86.9681 41.473 86.2985V47.4974C41.465 47.1608 41.524 46.826 41.6467 46.5126C41.7693 46.1991 41.9531 45.9134 42.1872 45.6721C42.4214 45.4308 42.7012 45.2388 43.0102 45.1074C43.3193 44.976 43.6514 44.9077 43.9871 44.9067H63.9702C64.4339 44.9084 64.8882 45.0383 65.2831 45.282C65.678 45.5258 65.9983 45.874 66.2088 46.2884L69.0586 51.8845C69.2683 52.2995 69.5884 52.6483 69.9835 52.8922C70.3785 53.136 70.8332 53.2655 71.2971 53.2662H98.8482C99.515 53.2662 100.154 53.5319 100.626 54.0048C101.097 54.4777 101.362 55.1191 101.362 55.7879V86.2985C101.362 86.9681 101.098 87.6104 100.626 88.0847C100.155 88.559 99.5158 88.8266 98.8482 88.8289Z" fill="white" stroke="#111111" stroke-width="0.86359" stroke-linecap="round" stroke-linejoin="round"/>
<path d="M90.4019 54.5875C87.2326 54.5858 84.1339 55.5269 81.4978 57.2918C78.8618 59.0567 76.8068 61.5661 75.5927 64.5026C74.3787 67.4392 74.0602 70.6709 74.6774 73.789C75.2947 76.9071 76.82 79.7715 79.0605 82.02C81.301 84.2685 84.1559 85.8 87.2643 86.4209C90.3726 87.0417 93.5947 86.7239 96.5229 85.5078C99.4512 84.2916 101.954 82.2317 103.715 79.5886C105.476 76.9455 106.416 73.8379 106.416 70.6589C106.416 66.398 104.729 62.3115 101.726 59.2977C98.7231 56.284 94.6499 54.5898 90.4019 54.5875Z" fill="white" stroke="#111111" stroke-width="0.86359" stroke-linecap="round" stroke-linejoin="round"/>
<path d="M101.801 82.3177L106.072 86.6011" stroke="#111111" stroke-width="0.86359" stroke-linecap="round" stroke-linejoin="round"/>
<path d="M105.589 84.5193L104.262 85.9114C103.668 86.5354 103.69 87.5248 104.312 88.1214L115.825 99.1612C116.448 99.7577 117.434 99.7355 118.029 99.1114L119.356 97.7194C119.95 97.0954 119.928 96.1059 119.306 95.5094L107.792 84.4696C107.17 83.873 106.184 83.8953 105.589 84.5193Z" fill="#D2D2D2"/>
<path d="M114.113 23.4982V27.2203" stroke="white" stroke-width="0.86359" stroke-linecap="round" stroke-linejoin="round"/>
<path d="M112.253 25.3637H115.964" stroke="white" stroke-width="0.86359" stroke-linecap="round" stroke-linejoin="round"/>
<path d="M29.8295 134.073V141.831H28.4128L25.0378 136.948H24.981V141.831H23.3409V134.073H24.7803L28.1287 138.952H28.1969V134.073H29.8295ZM33.7831 141.944C33.1947 141.944 32.6859 141.819 32.2566 141.569C31.8298 141.317 31.5003 140.966 31.268 140.516C31.0356 140.064 30.9195 139.54 30.9195 138.944C30.9195 138.343 31.0356 137.818 31.268 137.369C31.5003 136.917 31.8298 136.566 32.2566 136.316C32.6859 136.063 33.1947 135.937 33.7831 135.937C34.3715 135.937 34.8791 136.063 35.3058 136.316C35.7351 136.566 36.0659 136.917 36.2983 137.369C36.5306 137.818 36.6467 138.343 36.6467 138.944C36.6467 139.54 36.5306 140.064 36.2983 140.516C36.0659 140.966 35.7351 141.317 35.3058 141.569C34.8791 141.819 34.3715 141.944 33.7831 141.944ZM33.7907 140.694C34.0584 140.694 34.2818 140.619 34.4611 140.467C34.6404 140.313 34.7755 140.103 34.8664 139.838C34.9599 139.573 35.0066 139.271 35.0066 138.933C35.0066 138.595 34.9599 138.293 34.8664 138.028C34.7755 137.763 34.6404 137.553 34.4611 137.399C34.2818 137.245 34.0584 137.168 33.7907 137.168C33.5205 137.168 33.2932 137.245 33.1089 137.399C32.927 137.553 32.7894 137.763 32.696 138.028C32.6051 138.293 32.5596 138.595 32.5596 138.933C32.5596 139.271 32.6051 139.573 32.696 139.838C32.7894 140.103 32.927 140.313 33.1089 140.467C33.2932 140.619 33.5205 140.694 33.7907 140.694ZM40.7907 136.013V137.225H37.2869V136.013H40.7907ZM38.0823 134.619H39.696V140.043C39.696 140.192 39.7187 140.308 39.7642 140.391C39.8096 140.472 39.8728 140.529 39.9536 140.562C40.0369 140.595 40.1329 140.611 40.2414 140.611C40.3172 140.611 40.393 140.605 40.4687 140.592C40.5445 140.577 40.6025 140.566 40.643 140.558L40.8967 141.759C40.8159 141.784 40.7023 141.813 40.5558 141.846C40.4094 141.881 40.2313 141.903 40.0217 141.91C39.6329 141.925 39.2919 141.874 38.999 141.755C38.7086 141.636 38.4826 141.452 38.321 141.202C38.1594 140.952 38.0798 140.636 38.0823 140.255V134.619ZM43.5805 138.467V141.831H41.9668V134.073H43.535V137.039H43.6032C43.7345 136.696 43.9466 136.427 44.2395 136.232C44.5325 136.035 44.8999 135.937 45.3418 135.937C45.7459 135.937 46.0981 136.025 46.3986 136.202C46.7017 136.376 46.9365 136.627 47.1032 136.956C47.2724 137.281 47.3557 137.672 47.3532 138.126V141.831H45.7395V138.414C45.7421 138.055 45.6512 137.776 45.4668 137.577C45.285 137.377 45.0299 137.278 44.7017 137.278C44.482 137.278 44.2875 137.324 44.1183 137.418C43.9517 137.511 43.8204 137.648 43.7244 137.827C43.631 138.004 43.583 138.217 43.5805 138.467ZM48.6231 141.831V136.013H50.2367V141.831H48.6231ZM49.4337 135.263C49.1938 135.263 48.988 135.183 48.8162 135.024C48.6471 134.862 48.5625 134.669 48.5625 134.444C48.5625 134.222 48.6471 134.031 48.8162 133.872C48.988 133.711 49.1938 133.63 49.4337 133.63C49.6736 133.63 49.8781 133.711 50.0473 133.872C50.219 134.031 50.3049 134.222 50.3049 134.444C50.3049 134.669 50.219 134.862 50.0473 135.024C49.8781 135.183 49.6736 135.263 49.4337 135.263ZM53.143 138.467V141.831H51.5293V136.013H53.0672V137.039H53.1354C53.2642 136.701 53.4801 136.433 53.7831 136.236C54.0861 136.037 54.4536 135.937 54.8854 135.937C55.2894 135.937 55.6417 136.025 55.9422 136.202C56.2427 136.379 56.4763 136.631 56.643 136.96C56.8096 137.285 56.893 137.674 56.893 138.126V141.831H55.2793V138.414C55.2818 138.058 55.1909 137.78 55.0066 137.581C54.8222 137.379 54.5685 137.278 54.2452 137.278C54.0281 137.278 53.8361 137.324 53.6695 137.418C53.5053 137.511 53.3765 137.648 53.2831 137.827C53.1922 138.004 53.1455 138.217 53.143 138.467ZM60.7859 144.134C60.2632 144.134 59.815 144.062 59.4412 143.918C59.07 143.776 58.7746 143.583 58.5549 143.338C58.3352 143.093 58.1925 142.818 58.1269 142.513L59.6193 142.312C59.6647 142.428 59.7367 142.537 59.8352 142.638C59.9337 142.739 60.0637 142.819 60.2253 142.88C60.3895 142.943 60.589 142.975 60.8238 142.975C61.1748 142.975 61.464 142.889 61.6912 142.717C61.921 142.548 62.0359 142.264 62.0359 141.865V140.8H61.9678C61.8971 140.962 61.791 141.115 61.6496 141.259C61.5082 141.403 61.3263 141.52 61.1041 141.611C60.8819 141.702 60.6168 141.747 60.3087 141.747C59.8718 141.747 59.4741 141.646 59.1155 141.444C58.7594 141.24 58.4753 140.928 58.2632 140.509C58.0536 140.087 57.9488 139.554 57.9488 138.91C57.9488 138.251 58.0561 137.701 58.2708 137.259C58.4854 136.817 58.7708 136.486 59.1269 136.266C59.4854 136.047 59.8781 135.937 60.3049 135.937C60.6306 135.937 60.9034 135.992 61.1231 136.103C61.3428 136.212 61.5195 136.348 61.6534 136.513C61.7897 136.674 61.8945 136.833 61.9678 136.99H62.0284V136.013H63.6306V141.888C63.6306 142.383 63.5094 142.797 63.267 143.13C63.0246 143.463 62.6887 143.713 62.2594 143.88C61.8327 144.049 61.3415 144.134 60.7859 144.134ZM60.82 140.535C61.0801 140.535 61.2998 140.471 61.4791 140.342C61.6609 140.211 61.7998 140.024 61.8958 139.781C61.9943 139.537 62.0435 139.244 62.0435 138.903C62.0435 138.562 61.9955 138.266 61.8996 138.016C61.8036 137.764 61.6647 137.568 61.4829 137.429C61.3011 137.29 61.0801 137.221 60.82 137.221C60.5549 137.221 60.3314 137.293 60.1496 137.437C59.9678 137.578 59.8301 137.775 59.7367 138.028C59.6433 138.28 59.5966 138.572 59.5966 138.903C59.5966 139.239 59.6433 139.529 59.7367 139.774C59.8327 140.016 59.9703 140.204 60.1496 140.338C60.3314 140.47 60.5549 140.535 60.82 140.535ZM70.4782 136.013V137.225H66.9744V136.013H70.4782ZM67.7698 134.619H69.3835V140.043C69.3835 140.192 69.4062 140.308 69.4517 140.391C69.4971 140.472 69.5603 140.529 69.6411 140.562C69.7244 140.595 69.8204 140.611 69.9289 140.611C70.0047 140.611 70.0805 140.605 70.1562 140.592C70.232 140.577 70.29 140.566 70.3305 140.558L70.5842 141.759C70.5034 141.784 70.3898 141.813 70.2433 141.846C70.0969 141.881 69.9188 141.903 69.7092 141.91C69.3204 141.925 68.9794 141.874 68.6865 141.755C68.3961 141.636 68.1701 141.452 68.0085 141.202C67.8469 140.952 67.7673 140.636 67.7698 140.255V134.619ZM74.0956 141.944C73.5072 141.944 72.9984 141.819 72.5691 141.569C72.1423 141.317 71.8128 140.966 71.5805 140.516C71.3481 140.064 71.232 139.54 71.232 138.944C71.232 138.343 71.3481 137.818 71.5805 137.369C71.8128 136.917 72.1423 136.566 72.5691 136.316C72.9984 136.063 73.5072 135.937 74.0956 135.937C74.684 135.937 75.1916 136.063 75.6183 136.316C76.0476 136.566 76.3784 136.917 76.6108 137.369C76.8431 137.818 76.9592 138.343 76.9592 138.944C76.9592 139.54 76.8431 140.064 76.6108 140.516C76.3784 140.966 76.0476 141.317 75.6183 141.569C75.1916 141.819 74.684 141.944 74.0956 141.944ZM74.1032 140.694C74.3709 140.694 74.5943 140.619 74.7736 140.467C74.9529 140.313 75.088 140.103 75.1789 139.838C75.2724 139.573 75.3191 139.271 75.3191 138.933C75.3191 138.595 75.2724 138.293 75.1789 138.028C75.088 137.763 74.9529 137.553 74.7736 137.399C74.5943 137.245 74.3709 137.168 74.1032 137.168C73.833 137.168 73.6057 137.245 73.4214 137.399C73.2395 137.553 73.1019 137.763 73.0085 138.028C72.9176 138.293 72.8721 138.595 72.8721 138.933C72.8721 139.271 72.9176 139.573 73.0085 139.838C73.1019 140.103 73.2395 140.313 73.4214 140.467C73.6057 140.619 73.833 140.694 74.1032 140.694ZM85.3181 137.672L83.8409 137.763C83.8156 137.636 83.7613 137.523 83.678 137.422C83.5947 137.318 83.4848 137.236 83.3484 137.175C83.2146 137.112 83.0543 137.081 82.8674 137.081C82.6174 137.081 82.4065 137.134 82.2348 137.24C82.0631 137.343 81.9772 137.482 81.9772 137.656C81.9772 137.795 82.0328 137.913 82.1439 138.009C82.255 138.105 82.4457 138.182 82.7159 138.24L83.7689 138.452C84.3346 138.568 84.7563 138.755 85.0341 139.013C85.3118 139.27 85.4507 139.609 85.4507 140.028C85.4507 140.409 85.3383 140.744 85.1136 141.031C84.8914 141.319 84.5858 141.544 84.1969 141.706C83.8106 141.865 83.3649 141.944 82.8598 141.944C82.0896 141.944 81.476 141.784 81.0189 141.463C80.5644 141.14 80.2979 140.701 80.2197 140.145L81.8068 140.062C81.8548 140.297 81.9709 140.476 82.1553 140.6C82.3396 140.721 82.5757 140.781 82.8636 140.781C83.1464 140.781 83.3737 140.727 83.5454 140.619C83.7197 140.508 83.808 140.365 83.8106 140.191C83.808 140.044 83.7462 139.924 83.625 139.831C83.5037 139.735 83.3169 139.662 83.0644 139.611L82.0568 139.41C81.4886 139.297 81.0656 139.1 80.7878 138.819C80.5126 138.539 80.375 138.182 80.375 137.747C80.375 137.374 80.476 137.052 80.678 136.781C80.8825 136.511 81.1692 136.303 81.5378 136.156C81.9091 136.01 82.3434 135.937 82.8409 135.937C83.5757 135.937 84.154 136.092 84.5757 136.403C85 136.713 85.2474 137.136 85.3181 137.672ZM89.1183 141.944C88.5198 141.944 88.0047 141.823 87.5729 141.581C87.1436 141.336 86.8128 140.99 86.5805 140.543C86.3481 140.093 86.232 139.562 86.232 138.948C86.232 138.35 86.3481 137.824 86.5805 137.372C86.8128 136.92 87.1398 136.568 87.5615 136.316C87.9858 136.063 88.4832 135.937 89.0539 135.937C89.4378 135.937 89.7951 135.999 90.1259 136.122C90.4592 136.244 90.7496 136.427 90.9971 136.672C91.2471 136.917 91.4416 137.225 91.5805 137.596C91.7193 137.965 91.7888 138.396 91.7888 138.891V139.335H86.8759V138.335H90.2698C90.2698 138.102 90.2193 137.896 90.1183 137.717C90.0173 137.538 89.8772 137.398 89.6979 137.297C89.5211 137.193 89.3153 137.141 89.0805 137.141C88.8355 137.141 88.6183 137.198 88.4289 137.312C88.2421 137.423 88.0956 137.573 87.9895 137.763C87.8835 137.949 87.8292 138.158 87.8267 138.388V139.338C87.8267 139.626 87.8797 139.875 87.9858 140.085C88.0943 140.294 88.2471 140.456 88.4441 140.569C88.6411 140.683 88.8746 140.74 89.1448 140.74C89.3241 140.74 89.4883 140.715 89.6373 140.664C89.7863 140.614 89.9138 140.538 90.0198 140.437C90.1259 140.336 90.2067 140.212 90.2623 140.066L91.7547 140.164C91.6789 140.523 91.5236 140.836 91.2888 141.103C91.0565 141.369 90.756 141.576 90.3873 141.725C90.0211 141.871 89.5981 141.944 89.1183 141.944ZM95.4933 141.944C94.8948 141.944 94.3797 141.823 93.9479 141.581C93.5186 141.336 93.1878 140.99 92.9555 140.543C92.7231 140.093 92.607 139.562 92.607 138.948C92.607 138.35 92.7231 137.824 92.9555 137.372C93.1878 136.92 93.5148 136.568 93.9365 136.316C94.3608 136.063 94.8582 135.937 95.4289 135.937C95.8128 135.937 96.1701 135.999 96.5009 136.122C96.8342 136.244 97.1246 136.427 97.3721 136.672C97.6221 136.917 97.8166 137.225 97.9555 137.596C98.0943 137.965 98.1638 138.396 98.1638 138.891V139.335H93.2509V138.335H96.6448C96.6448 138.102 96.5943 137.896 96.4933 137.717C96.3923 137.538 96.2522 137.398 96.0729 137.297C95.8961 137.193 95.6903 137.141 95.4555 137.141C95.2105 137.141 94.9933 137.198 94.8039 137.312C94.6171 137.423 94.4706 137.573 94.3645 137.763C94.2585 137.949 94.2042 138.158 94.2017 138.388V139.338C94.2017 139.626 94.2547 139.875 94.3608 140.085C94.4693 140.294 94.6221 140.456 94.8191 140.569C95.0161 140.683 95.2496 140.74 95.5198 140.74C95.6991 140.74 95.8633 140.715 96.0123 140.664C96.1613 140.614 96.2888 140.538 96.3948 140.437C96.5009 140.336 96.5817 140.212 96.6373 140.066L98.1297 140.164C98.0539 140.523 97.8986 140.836 97.6638 141.103C97.4315 141.369 97.131 141.576 96.7623 141.725C96.3961 141.871 95.9731 141.944 95.4933 141.944ZM103.299 138.467V141.831H101.686V134.073H103.254V137.039H103.322C103.453 136.696 103.665 136.427 103.958 136.232C104.251 136.035 104.619 135.937 105.061 135.937C105.465 135.937 105.817 136.025 106.117 136.202C106.42 136.376 106.655 136.627 106.822 136.956C106.991 137.281 107.074 137.672 107.072 138.126V141.831H105.458V138.414C105.461 138.055 105.37 137.776 105.186 137.577C105.004 137.377 104.749 137.278 104.42 137.278C104.201 137.278 104.006 137.324 103.837 137.418C103.67 137.511 103.539 137.648 103.443 137.827C103.35 138.004 103.302 138.217 103.299 138.467ZM110.993 141.944C110.395 141.944 109.88 141.823 109.448 141.581C109.019 141.336 108.688 140.99 108.455 140.543C108.223 140.093 108.107 139.562 108.107 138.948C108.107 138.35 108.223 137.824 108.455 137.372C108.688 136.92 109.015 136.568 109.437 136.316C109.861 136.063 110.358 135.937 110.929 135.937C111.313 135.937 111.67 135.999 112.001 136.122C112.334 136.244 112.625 136.427 112.872 136.672C113.122 136.917 113.317 137.225 113.455 137.596C113.594 137.965 113.664 138.396 113.664 138.891V139.335H108.751V138.335H112.145C112.145 138.102 112.094 137.896 111.993 137.717C111.892 137.538 111.752 137.398 111.573 137.297C111.396 137.193 111.19 137.141 110.955 137.141C110.711 137.141 110.493 137.198 110.304 137.312C110.117 137.423 109.971 137.573 109.865 137.763C109.758 137.949 109.704 138.158 109.702 138.388V139.338C109.702 139.626 109.755 139.875 109.861 140.085C109.969 140.294 110.122 140.456 110.319 140.569C110.516 140.683 110.75 140.74 111.02 140.74C111.199 140.74 111.363 140.715 111.512 140.664C111.661 140.614 111.789 140.538 111.895 140.437C112.001 140.336 112.082 140.212 112.137 140.066L113.63 140.164C113.554 140.523 113.399 140.836 113.164 141.103C112.931 141.369 112.631 141.576 112.262 141.725C111.896 141.871 111.473 141.944 110.993 141.944ZM114.717 141.831V136.013H116.281V137.028H116.342C116.448 136.667 116.626 136.394 116.876 136.21C117.126 136.023 117.414 135.929 117.74 135.929C117.82 135.929 117.907 135.934 118.001 135.944C118.094 135.954 118.176 135.968 118.247 135.986V137.418C118.171 137.395 118.067 137.375 117.933 137.357C117.799 137.34 117.676 137.331 117.565 137.331C117.328 137.331 117.116 137.383 116.929 137.486C116.745 137.587 116.598 137.728 116.49 137.91C116.383 138.092 116.33 138.302 116.33 138.539V141.831H114.717ZM121.462 141.944C120.864 141.944 120.348 141.823 119.917 141.581C119.487 141.336 119.157 140.99 118.924 140.543C118.692 140.093 118.576 139.562 118.576 138.948C118.576 138.35 118.692 137.824 118.924 137.372C119.157 136.92 119.484 136.568 119.905 136.316C120.33 136.063 120.827 135.937 121.398 135.937C121.782 135.937 122.139 135.999 122.47 136.122C122.803 136.244 123.093 136.427 123.341 136.672C123.591 136.917 123.785 137.225 123.924 137.596C124.063 137.965 124.133 138.396 124.133 138.891V139.335H119.22V138.335H122.614C122.614 138.102 122.563 137.896 122.462 137.717C122.361 137.538 122.221 137.398 122.042 137.297C121.865 137.193 121.659 137.141 121.424 137.141C121.179 137.141 120.962 137.198 120.773 137.312C120.586 137.423 120.439 137.573 120.333 137.763C120.227 137.949 120.173 138.158 120.17 138.388V139.338C120.17 139.626 120.223 139.875 120.33 140.085C120.438 140.294 120.591 140.456 120.788 140.569C120.985 140.683 121.218 140.74 121.489 140.74C121.668 140.74 121.832 140.715 121.981 140.664C122.13 140.614 122.258 140.538 122.364 140.437C122.47 140.336 122.55 140.212 122.606 140.066L124.098 140.164C124.023 140.523 123.867 140.836 123.633 141.103C123.4 141.369 123.1 141.576 122.731 141.725C122.365 141.871 121.942 141.944 121.462 141.944Z" fill="white"/>
</svg>
