<svg width="20" height="20" viewBox="0 0 20 20" fill="none" xmlns="http://www.w3.org/2000/svg">
<path fill-rule="evenodd" clip-rule="evenodd" d="M12.8483 4.70249C12.7334 4.51885 12.5641 4.37562 12.3639 4.29272C12.1638 4.20982 11.9428 4.19139 11.7317 4.23999L10.2333 4.58415C10.0798 4.61945 9.92022 4.61945 9.76667 4.58415L8.26834 4.23999C8.05722 4.19139 7.83621 4.20982 7.63607 4.29272C7.43592 4.37562 7.2666 4.51885 7.15167 4.70249L6.335 6.00582C6.25167 6.13915 6.13917 6.25165 6.00584 6.33582L4.7025 7.15249C4.51919 7.26731 4.37616 7.43636 4.29328 7.63617C4.2104 7.83597 4.19178 8.05662 4.24 8.26749L4.58417 9.76749C4.61934 9.92077 4.61934 10.08 4.58417 10.2333L4.24 11.7325C4.19159 11.9435 4.21012 12.1643 4.29301 12.3643C4.3759 12.5643 4.51903 12.7334 4.7025 12.8483L6.00584 13.665C6.13917 13.7483 6.25167 13.8608 6.33584 13.9942L7.1525 15.2975C7.3875 15.6733 7.83584 15.8592 8.26834 15.76L9.76667 15.4158C9.92022 15.3805 10.0798 15.3805 10.2333 15.4158L11.7325 15.76C11.9435 15.8084 12.1643 15.7899 12.3643 15.707C12.5643 15.6241 12.7335 15.481 12.8483 15.2975L13.665 13.9942C13.7483 13.8608 13.8608 13.7483 13.9942 13.665L15.2983 12.8483C15.4818 12.7333 15.6249 12.5639 15.7076 12.3638C15.7904 12.1636 15.8087 11.9427 15.76 11.7317L15.4167 10.2333C15.3814 10.0798 15.3814 9.92021 15.4167 9.76665L15.7608 8.26749C15.8093 8.05658 15.7909 7.83581 15.7082 7.63585C15.6255 7.43588 15.4825 7.26665 15.2992 7.15165L13.995 6.33499C13.8619 6.2515 13.7493 6.13897 13.6658 6.00582L12.8483 4.70249ZM12.4292 8.14165C12.4807 8.04688 12.4935 7.9358 12.4648 7.8318C12.4361 7.7278 12.3682 7.63897 12.2754 7.58402C12.1825 7.52907 12.072 7.51228 11.967 7.53717C11.862 7.56206 11.7708 7.6267 11.7125 7.71749L9.53334 11.4058L8.2175 10.1458C8.17847 10.1057 8.13176 10.0739 8.08016 10.0523C8.02857 10.0306 7.97314 10.0196 7.91719 10.0199C7.86124 10.0201 7.80591 10.0316 7.75451 10.0537C7.7031 10.0758 7.65667 10.108 7.61799 10.1484C7.5793 10.1889 7.54915 10.2367 7.52934 10.289C7.50953 10.3413 7.50046 10.3971 7.50267 10.453C7.50488 10.5089 7.51832 10.5638 7.54221 10.6144C7.56609 10.665 7.59991 10.7102 7.64167 10.7475L9.33667 12.3717C9.38204 12.415 9.43661 12.4476 9.49633 12.4669C9.55605 12.4863 9.61936 12.4918 9.68154 12.4833C9.74372 12.4747 9.80316 12.4522 9.85542 12.4174C9.90767 12.3826 9.9514 12.3365 9.98334 12.2825L12.4292 8.14165Z" fill="#011DEC"/>
</svg>
