<svg width="20" height="20" viewBox="0 0 20 20" fill="none" xmlns="http://www.w3.org/2000/svg">
<path d="M10 6.25C9.25835 6.25 8.53332 6.46993 7.91664 6.88199C7.29995 7.29404 6.81931 7.87971 6.53548 8.56494C6.25165 9.25016 6.17739 10.0042 6.32208 10.7316C6.46678 11.459 6.82393 12.1272 7.34838 12.6517C7.87282 13.1761 8.54101 13.5332 9.26844 13.6779C9.99587 13.8226 10.7499 13.7484 11.4351 13.4645C12.1203 13.1807 12.706 12.7001 13.118 12.0834C13.5301 11.4667 13.75 10.7417 13.75 10C13.749 9.00575 13.3536 8.05253 12.6505 7.34949C11.9475 6.64645 10.9943 6.25103 10 6.25ZM10 12.5C9.50557 12.5 9.02222 12.3534 8.6111 12.0787C8.19998 11.804 7.87955 11.4135 7.69033 10.9567C7.50111 10.4999 7.4516 9.99723 7.54806 9.51227C7.64453 9.02732 7.88263 8.58186 8.23226 8.23223C8.58189 7.8826 9.02735 7.6445 9.5123 7.54804C9.99725 7.45157 10.4999 7.50108 10.9567 7.6903C11.4135 7.87952 11.804 8.19995 12.0787 8.61107C12.3534 9.0222 12.5 9.50555 12.5 10C12.5 10.663 12.2366 11.2989 11.7678 11.7678C11.299 12.2366 10.6631 12.5 10 12.5ZM18.5891 8.37578C18.5717 8.28777 18.5355 8.20454 18.4831 8.13174C18.4306 8.05894 18.3632 7.99829 18.2852 7.95391L15.9547 6.62578L15.9453 3.99922C15.9451 3.90876 15.9251 3.81944 15.887 3.73743C15.8488 3.65542 15.7933 3.58268 15.7242 3.52422C14.8789 2.80914 13.9054 2.26114 12.8555 1.90937C12.7728 1.88139 12.6852 1.87103 12.5983 1.87897C12.5113 1.88691 12.427 1.91297 12.3508 1.95547L10 3.26953L7.6469 1.95312C7.57061 1.91039 7.48621 1.88413 7.39914 1.87606C7.31207 1.86798 7.22428 1.87827 7.14143 1.90625C6.09233 2.26059 5.11994 2.81067 4.27581 3.52734C4.20688 3.58572 4.15142 3.65834 4.11325 3.7402C4.07508 3.82207 4.05511 3.91124 4.05471 4.00156L4.043 6.63047L1.71253 7.95859C1.63456 8.00298 1.56706 8.06363 1.51462 8.13643C1.46218 8.20922 1.42603 8.29246 1.40862 8.38047C1.19534 9.45225 1.19534 10.5556 1.40862 11.6273C1.42603 11.7154 1.46218 11.7986 1.51462 11.8714C1.56706 11.9442 1.63456 12.0048 1.71253 12.0492L4.043 13.3773L4.05237 16.0039C4.05265 16.0944 4.07257 16.1837 4.11074 16.2657C4.14891 16.3477 4.20443 16.4204 4.27346 16.4789C5.11883 17.194 6.09234 17.742 7.14221 18.0938C7.22489 18.1217 7.31252 18.1321 7.39944 18.1242C7.48636 18.1162 7.57066 18.0902 7.6469 18.0477L10 16.7305L12.3532 18.0469C12.4463 18.0988 12.5512 18.1257 12.6578 18.125C12.7261 18.125 12.7939 18.1139 12.8586 18.0922C13.9076 17.7383 14.88 17.1888 15.7242 16.4727C15.7932 16.4143 15.8486 16.3417 15.8868 16.2598C15.925 16.1779 15.9449 16.0888 15.9453 15.9984L15.9571 13.3695L18.2875 12.0414C18.3655 11.997 18.433 11.9364 18.4854 11.8636C18.5379 11.7908 18.574 11.7075 18.5914 11.6195C18.8035 10.5486 18.8027 9.4464 18.5891 8.37578ZM17.4172 11.1031L15.1852 12.3727C15.0874 12.4283 15.0064 12.5092 14.9508 12.607C14.9055 12.6852 14.8578 12.768 14.8094 12.8461C14.7474 12.9446 14.7144 13.0586 14.7141 13.175L14.7024 15.6945C14.1024 16.1657 13.434 16.5424 12.7203 16.8117L10.4688 15.557C10.3753 15.5053 10.2701 15.4784 10.1633 15.4789H10.1485C10.0539 15.4789 9.95862 15.4789 9.86409 15.4789C9.75228 15.4761 9.64174 15.5031 9.54378 15.557L7.29065 16.8148C6.57543 16.5476 5.9052 16.1727 5.30315 15.7031L5.29456 13.1875C5.29417 13.0709 5.26116 12.9567 5.19925 12.8578C5.15081 12.7797 5.10315 12.7016 5.05862 12.6187C5.0034 12.5194 4.92244 12.4369 4.82425 12.3797L2.58987 11.107C2.47424 10.3756 2.47424 9.63061 2.58987 8.89922L4.818 7.62734C4.91579 7.57174 4.99676 7.49076 5.05237 7.39297C5.09768 7.31484 5.14534 7.23203 5.19378 7.15391C5.25578 7.05539 5.28881 6.94141 5.28909 6.825L5.30081 4.30547C5.90075 3.83433 6.56914 3.45759 7.28284 3.18828L9.53128 4.44297C9.62913 4.49721 9.73975 4.52419 9.85159 4.52109C9.94612 4.52109 10.0414 4.52109 10.136 4.52109C10.2478 4.52389 10.3583 4.49693 10.4563 4.44297L12.7094 3.18516C13.4246 3.4524 14.0949 3.82729 14.6969 4.29687L14.7055 6.8125C14.7059 6.92914 14.7389 7.04334 14.8008 7.14219C14.8492 7.22031 14.8969 7.29844 14.9414 7.38125C14.9966 7.48056 15.0776 7.56314 15.1758 7.62031L17.4102 8.89297C17.5274 9.62493 17.5287 10.3708 17.4141 11.1031H17.4172Z" fill="#B4B4B4"/>
</svg>
