<svg width="16" height="14" viewBox="0 0 16 14" fill="none" xmlns="http://www.w3.org/2000/svg">
<path d="M10.232 6H11.5C11.6326 6 11.7598 6.05268 11.8536 6.14645C11.9473 6.24022 12 6.36739 12 6.5C12 6.63261 11.9473 6.75979 11.8536 6.85356C11.7598 6.94732 11.6326 7 11.5 7H4.5C4.36739 7 4.24021 6.94732 4.14645 6.85356C4.05268 6.75979 4 6.63261 4 6.5C4 6.36739 4.05268 6.24022 4.14645 6.14645C4.24021 6.05268 4.36739 6 4.5 6H5.257C5.11548 5.84301 5.02735 5.64521 5.00525 5.435C4.98315 5.2248 5.02822 5.01299 5.134 4.83L7.634 0.500003C7.76661 0.27033 7.98503 0.102742 8.2412 0.0341039C8.49737 -0.0345339 8.77032 0.00140069 9 0.134003L11.598 1.634C11.8277 1.76662 11.9953 1.98503 12.0639 2.2412C12.1325 2.49738 12.0966 2.77032 11.964 3L10.232 6ZM11.098 2.5L8.5 1L6 5.33L7.16 6H9.078L11.098 2.5ZM11.96 5L12.537 4C12.686 4.0056 12.8318 4.04442 12.9638 4.11363C13.0958 4.18283 13.2107 4.28068 13.3 4.4L15.8 7.733C15.9298 7.9061 16 8.11663 16 8.333V13C16 13.2652 15.8946 13.5196 15.7071 13.7071C15.5196 13.8946 15.2652 14 15 14H1C0.734784 14 0.48043 13.8946 0.292893 13.7071C0.105357 13.5196 0 13.2652 0 13V8.333C0 8.11663 0.0701779 7.9061 0.2 7.733L2.7 4.4C2.79315 4.27581 2.91393 4.175 3.05279 4.10558C3.19164 4.03615 3.34475 4 3.5 4H4.463L3.984 4.83C3.95275 4.88411 3.92663 4.94102 3.906 5H3.5L1.25 8H14.75L12.5 5H11.96ZM1 13H15V9H1V13Z" fill="#B4B4B4"/>
</svg>
