<svg width="34" height="34" viewBox="0 0 34 34" fill="none" xmlns="http://www.w3.org/2000/svg">
<path d="M17.0982 3.94571L18.0026 4.03323C18.7576 4.10629 19.5056 4.23861 20.2399 4.42897L20.9124 4.60333L20.9773 4.62498C21.8519 4.91649 22.6905 5.30635 23.4771 5.78705V5.78705L24.6608 6.51043" stroke="white" stroke-width="0.526096"/>
<path d="M17.0982 1.44681L17.9954 1.50289C18.7988 1.5531 19.5966 1.67026 20.3805 1.85317L21.1755 2.03867L22.688 2.56476L24.332 3.35391L24.9239 3.68272" stroke="white" stroke-width="0.526096"/>
<circle cx="16.9008" cy="16.9008" r="16.7012" stroke="white" stroke-width="0.399233"/>
<path d="M16.7035 2.76202L15.3276 2.92982C14.4491 3.03696 13.5817 3.22089 12.7353 3.4795V3.4795C12.0061 3.70233 11.2947 3.97991 10.6072 4.30988L9.99582 4.60336L9.37288 5.01149C8.51842 5.57132 7.71464 6.20492 6.97076 6.90503V6.90503" stroke="white" stroke-width="0.526096"/>
<path d="M3.48543 9.14093L3.02509 9.99584L2.36747 11.5084L1.84138 13.2839L1.51257 15.191L1.38104 16.7693" stroke="white" stroke-width="0.526096"/>
<path d="M6.18162 9.66702L5.45824 10.785V10.785C5.0205 11.7042 4.65533 12.6563 4.36608 13.6325L4.27452 13.9416L4.19849 14.4168C4.07401 15.1948 4.01147 15.9814 4.01147 16.7693V16.7693" stroke="white" stroke-width="0.526096"/>
<path d="M2.76196 17.1639V17.1639C2.76196 17.9514 2.83283 18.7374 2.97371 19.5122L3.02501 19.7944L3.48535 21.4384V21.4384C3.87917 22.4449 4.35977 23.4152 4.9217 24.3383L4.99787 24.4635L6.11583 26.0418L6.83921 27.0282" stroke="white" stroke-width="0.526096"/>
<path d="M9.20667 30.3821L10.5877 31.1712L10.6083 31.1805C11.4695 31.568 12.3653 31.8732 13.2839 32.0919V32.0919L14.5992 32.3549L16.7693 32.4865" stroke="white" stroke-width="0.526096"/>
<path d="M9.66705 27.6858L10.5877 28.2777L11.8372 28.9353V28.9353C12.5349 29.2842 13.2798 29.5293 14.0484 29.663L14.4019 29.7244L15.8487 29.9217H16.9009" stroke="white" stroke-width="0.526096"/>
<path d="M17.2296 31.0397H17.2568C18.1999 31.0397 19.1399 30.9293 20.0574 30.7109V30.7109L21.6357 30.2505V30.2505C22.5547 29.9004 23.4423 29.4729 24.289 28.9726L24.4634 28.8695L25.976 27.8173L27.0282 26.9624" stroke="white" stroke-width="0.526096"/>
<path d="M29.9217 17.2296V17.2296C29.9217 17.9721 29.8307 18.7118 29.6506 19.4322L29.4614 20.1889L29.2834 20.7082C28.8768 21.8941 28.3641 23.0409 27.7516 24.1347V24.1347" stroke="white" stroke-width="0.526096"/>
<path d="M32.4206 17.0981L32.2234 19.0052L31.8945 20.7808L31.7612 21.24C31.456 22.2914 31.0702 23.3177 30.6072 24.3098L30.382 24.7923" stroke="white" stroke-width="0.526096"/>
<path d="M27.094 7.10229L28.1462 8.35177V8.35177C28.7153 9.18358 29.2211 10.057 29.6593 10.9646L29.9218 11.5084V11.5084C30.3157 12.5151 30.6274 13.552 30.8539 14.609L30.9082 14.8622L31.1712 16.7693" stroke="white" stroke-width="0.526096"/>
<circle cx="16.8351" cy="16.9666" r="11.6997" stroke="white" stroke-width="0.537919"/>
<line x1="16.9665" y1="0.394562" x2="16.9665" y2="4.99791" stroke="white" stroke-width="0.526096"/>
<line x1="0.328735" y1="16.9008" x2="4.93208" y2="16.9008" stroke="white" stroke-width="0.526096"/>
<line x1="28.8038" y1="16.9666" x2="33.4071" y2="16.9666" stroke="white" stroke-width="0.526096"/>
<line x1="16.9009" y1="28.8696" x2="16.9009" y2="33.4729" stroke="white" stroke-width="0.526096"/>
<path d="M8.9436 21.0439H5.78702" stroke="white" stroke-width="0.526096"/>
<line x1="12.7578" y1="9.0752" x2="12.7578" y2="6.05014" stroke="white" stroke-width="0.526096"/>
<line x1="14.9937" y1="11.3111" x2="14.9937" y2="5.524" stroke="white" stroke-width="0.526096"/>
<line x1="14.9937" y1="28.4092" x2="14.9937" y2="22.3591" stroke="white" stroke-width="0.526096"/>
<line x1="18.9395" y1="28.4092" x2="18.9395" y2="22.096" stroke="white" stroke-width="0.526096"/>
<path d="M8.7464 20.9123L9.2725 21.7015L9.86435 22.5564L9.91761 22.6309C10.3175 23.1908 10.8112 23.6773 11.3769 24.0689V24.0689V24.0689C11.9894 24.5064 12.6402 24.8878 13.3213 25.2083L13.4155 25.2526" stroke="white" stroke-width="0.526096"/>
<path d="M12.7578 8.81213L11.9029 9.46975L11.3839 9.85041C11.0727 10.0786 10.7795 10.3301 10.5067 10.6029V10.6029C10.08 11.0297 9.70573 11.5058 9.39195 12.0213L8.94364 12.7579L8.41754 13.8758" stroke="white" stroke-width="0.526096"/>
<path d="M20.5836 8.61481L21.7015 9.27243L22.6222 9.93005L23.5935 10.8551C23.866 11.1147 24.1133 11.3994 24.332 11.7056V11.7056L24.9896 12.6921" stroke="white" stroke-width="0.526096"/>
<path d="M21.1097 25.0553L21.8988 24.4635V24.4635C22.5116 24.0258 23.0871 23.5383 23.6195 23.0058L23.6744 22.951L23.8089 22.7781C24.332 22.1055 24.7947 21.388 25.1915 20.634L25.2527 20.5178" stroke="white" stroke-width="0.526096"/>
<line x1="18.9395" y1="11.4426" x2="18.9395" y2="5.65551" stroke="white" stroke-width="0.526096"/>
<line x1="24.7266" y1="12.7579" x2="27.6201" y2="12.7579" stroke="white" stroke-width="0.526096"/>
<path d="M21.0438 24.7265L21.0438 27.8831" stroke="white" stroke-width="0.526096"/>
<circle cx="3.81417" cy="8.68056" r="0.789145" fill="white"/>
<circle cx="6.57619" cy="7.23382" r="0.789145" fill="white"/>
<circle cx="6.57619" cy="9.20666" r="0.789145" fill="white"/>
<circle cx="8.4175" cy="13.81" r="0.789145" fill="white"/>
<circle cx="20.1232" cy="8.41753" r="0.789145" fill="white"/>
<circle cx="25.2526" cy="3.8142" r="0.789145" fill="white"/>
<circle cx="26.6994" cy="6.57622" r="0.789145" fill="white"/>
<circle cx="24.7266" cy="6.57622" r="0.789145" fill="white"/>
<circle cx="25.5157" cy="19.9917" r="0.789145" fill="white"/>
<circle cx="27.2255" cy="26.6994" r="0.789145" fill="white"/>
<circle cx="27.2255" cy="24.7265" r="0.789145" fill="white"/>
<circle cx="29.9874" cy="25.2526" r="0.789145" fill="white"/>
<circle cx="13.81" cy="25.5156" r="0.789145" fill="white"/>
<circle cx="7.23385" cy="27.357" r="0.789145" fill="white"/>
<circle cx="9.20669" cy="27.357" r="0.789145" fill="white"/>
<circle cx="8.54903" cy="29.9875" r="0.789145" fill="white"/>
<path d="M21.1325 21.1324C20.2956 21.9693 19.2292 22.5393 18.0684 22.7702C16.9076 23.0011 15.7043 22.8826 14.6108 22.4297C13.5173 21.9767 12.5827 21.2097 11.9251 20.2256C11.2675 19.2415 10.9166 18.0844 10.9166 16.9009C10.9166 15.7173 11.2675 14.5602 11.9251 13.5761C12.5827 12.592 13.5173 11.825 14.6108 11.372C15.7043 10.9191 16.9076 10.8006 18.0684 11.0315C19.2292 11.2624 20.2956 11.8324 21.1325 12.6693L20.6609 13.1409C19.9172 12.3973 18.9697 11.8908 17.9383 11.6857C16.9068 11.4805 15.8377 11.5858 14.866 11.9883C13.8944 12.3907 13.064 13.0722 12.4797 13.9467C11.8954 14.8211 11.5836 15.8492 11.5836 16.9009C11.5836 17.9525 11.8954 18.9806 12.4797 19.855C13.064 20.7295 13.8944 21.411 14.866 21.8135C15.8377 22.2159 16.9068 22.3212 17.9383 22.116C18.9697 21.9109 19.9172 21.4044 20.6609 20.6608L21.1325 21.1324Z" fill="white"/>
</svg>
